<?xml version="1.0" encoding="UTF-8"?>
<svg xmlns="http://www.w3.org/2000/svg" viewBox="0 0 600 120" width="600" height="120" role="img" aria-label="Magic Eden logo (white)">
  <!-- Transparent background: nothing behind -->
  <!-- Left mark: stylized "M" + "E" -->
  <g transform="translate(20,10)" fill="#ffffff" stroke="none">
    <!-- stylized mark - simplified vector shape matching the original -->
    <path d="M10 80c0 5.5 4.5 10 10 10h10c4.1 0 7.8-2.5 9.3-6.2L66 28.6c1.5-3.7 5.2-6.2 9.3-6.2h22c5.5 0 10-4.5 10-10s-4.5-10-10-10H75.3C66.2 2.4 56.9 7.7 53.2 16.2L39.5 54.5 29.5 31.2C27.8 26.6 23.8 23.5 19 23.5H19c-5.5 0-10 4.5-10 10v46z"/>
    <!-- E-like element connected to M -->
    <path d="M126 80c0 5.5 4.5 10 10 10h10c5.5 0 10-4.5 10-10V56c0-5.5-4.5-10-10-10h-26v-6c0-5.5 4.5-10 10-10h36c5.5 0 10-4.5 10-10s-4.5-10-10-10h-36c-16.6 0-30 13.4-30 30v36z"/>
  </g>

  <!-- Text "MAGIC EDEN" -->
  <!-- Using a generic rounded sans-serif; if you want an exact font, replace with outlined paths or embed a webfont. -->
  <g transform="translate(210,72)">
    <text x="0" y="0" font-family="Montserrat, Arial, Helvetica, sans-serif" font-weight="600"
          font-size="28" letter-spacing="6" fill="#ffffff">MAGIC EDEN</text>
  </g>
</svg>
